<svg width="150" height="134" viewBox="0 0 150 134" fill="none" xmlns="http://www.w3.org/2000/svg">
<path d="M69.3371 80.0225V48.0135C69.3371 46.5986 69.8991 45.2417 70.8996 44.2412C71.9001 43.2407 73.257 42.6787 74.6719 42.6787C76.0868 42.6787 77.4437 43.2407 78.4442 44.2412C79.4447 45.2417 80.0067 46.5986 80.0067 48.0135V80.0225C80.0067 81.4373 79.4447 82.7943 78.4442 83.7948C77.4437 84.7952 76.0868 85.3573 74.6719 85.3573C73.257 85.3573 71.9001 84.7952 70.8996 83.7948C69.8991 82.7943 69.3371 81.4373 69.3371 80.0225ZM147.204 125.356C145.813 127.802 143.795 129.834 141.358 131.241C138.921 132.649 136.154 133.382 133.339 133.366H16.0044C13.1936 133.366 10.4323 132.625 7.99843 131.219C5.56456 129.813 3.54392 127.791 2.13983 125.356C0.735739 122.921 -0.00228837 120.159 5.33011e-06 117.348C0.00229903 114.537 0.744833 111.777 2.1529 109.344L60.8204 7.98696C62.2263 5.55811 64.2461 3.54163 66.6773 2.13978C69.1085 0.737932 71.8655 0 74.6719 0C77.4783 0 80.2354 0.737932 82.6666 2.13978C85.0977 3.54163 87.1176 5.55811 88.5235 7.98696L147.191 109.344C148.615 111.771 149.367 114.534 149.37 117.348C149.372 120.162 148.624 122.926 147.204 125.356ZM137.957 114.688L79.2891 13.3319C78.8204 12.5223 78.1471 11.8502 77.3368 11.3829C76.5264 10.9156 75.6074 10.6697 74.6719 10.6697C73.7364 10.6697 72.8174 10.9156 72.007 11.3829C71.1967 11.8502 70.5234 12.5223 70.0547 13.3319L11.3872 114.688C10.918 115.499 10.6706 116.42 10.6699 117.356C10.6692 118.293 10.9152 119.214 11.3832 120.026C11.8512 120.837 12.5247 121.511 13.3359 121.98C14.1471 122.449 15.0675 122.696 16.0044 122.696H133.339C134.276 122.696 135.197 122.449 136.008 121.98C136.819 121.511 137.493 120.837 137.961 120.026C138.429 119.214 138.675 118.293 138.674 117.356C138.673 116.42 138.426 115.499 137.957 114.688ZM74.6719 96.0269C73.0892 96.0269 71.5421 96.4963 70.2261 97.3756C68.9101 98.2549 67.8845 99.5047 67.2788 100.967C66.6731 102.429 66.5146 104.038 66.8234 105.59C67.1322 107.143 67.8943 108.568 69.0135 109.688C70.1326 110.807 71.5585 111.569 73.1107 111.878C74.663 112.186 76.272 112.028 77.7342 111.422C79.1964 110.817 80.4462 109.791 81.3255 108.475C82.2048 107.159 82.6741 105.612 82.6741 104.029C82.6718 101.908 81.8279 99.8736 80.3277 98.3734C78.8275 96.8732 76.7935 96.0293 74.6719 96.0269Z" fill="black"/>
</svg>
